<svg xmlns="http://www.w3.org/2000/svg" xmlns:xlink="http://www.w3.org/1999/xlink"><defs><symbol viewBox="0 0 32 32" id="callback"><path d="m30 22.3-2.5-2.5c-1.3-1.3-3.5-1.3-4.8 0l-.8.8c-.5.5-1.4.5-2 0l-4.2-4.2-4.2-4.2c-.3-.3-.4-.6-.4-1s.1-.7.4-1l.9-.8c1.3-1.3 1.3-3.5 0-4.8L9.7 2C8.5.7 6.2.7 4.9 2l-.8.8c-2 2-3.1 4.6-3.1 7.5s1.1 5.5 3.1 7.5l5.1 5.1 5.1 5.1c2 2 4.7 3.1 7.5 3.1s5.5-1.1 7.5-3.1l.9-.8c.6-.6 1-1.5 1-2.4-.2-1-.5-1.9-1.2-2.5z" fill="#4DAF50" /><g fill="#FE9803"><path d="M16 5c-.5 0-1 .5-1 1s.5 1 1 1c2.5 0 4.7 1 6.4 2.6C24 11.3 25 13.5 25 16c0 .5.5 1 1 1s1-.5 1-1c0-3-1.2-5.8-3.2-7.8S19 5 16 5zM27.8 4.2C25.8 2.2 23 1 20 1c-.5 0-1 .5-1 1s.5 1 1 1c2.5 0 4.7 1 6.4 2.6C28 7.3 29 9.5 29 12c0 .5.5 1 1 1s1-.5 1-1c0-3-1.2-5.8-3.2-7.8z" /></g></symbol><symbol viewBox="0 0 40 40.1" id="carPrice"><path fill="currentColor" d="M11.8 34.5V37c0 1.4-1.1 2.5-2.5 2.5S6.8 38.4 6.8 37v-2.5H4.3v-8.1c0-1.8 1.2-3.2 2.8-3.7l2.9-6.9c.4-1 1.4-1.7 2.6-1.7h14.8c1.2 0 2.2.7 2.6 1.7l2.9 6.9c1.6.5 2.8 1.9 2.8 3.7v8.1h-2.5V37c0 1.4-1.1 2.5-2.5 2.5s-2.5-1.1-2.5-2.5v-2.5H11.8zM9.5 30c1.4 0 2.5-1.1 2.5-2.5S10.9 25 9.5 25 7 26.2 7 27.5C7 28.9 8.1 30 9.5 30m23.4-2.5c0-1.4-1.1-2.5-2.5-2.5s-2.5 1.1-2.5 2.5S29 30 30.4 30s2.5-1.1 2.5-2.5m-2.5-4.9-2.5-5.9c-.1-.3-.4-.5-.7-.5H12.8c-.3 0-.6.2-.7.5l-2.5 5.9h20.8zM23.7 6c0 2-1.6 3.7-3.7 3.7S16.4 8 16.4 6s1.6-3.7 3.7-3.7S23.7 4 23.7 6zM31 .7v10.6H9V.7h22zm-3.3 1H12.2c-.3 1.1-1.1 1.9-2.1 2.2V8c1.1.3 1.9 1.2 2.1 2h15.5c.3-.9 1.1-1.8 2.2-2V3.9c-1.1-.2-1.9-1.1-2.2-2.2z" /></symbol><symbol viewBox="0 0 40 40" id="crashCar"><path fill="currentColor" d="M39.3 27.1H28.6v-.6l.4-.1c.1 0 .2-.1.3-.2l2.8-4.7 3.1.2c1.4.1 2.2-.6 2.3-2l.2-3.1c.7 0 1.2-.5 1.3-1.2l.1-1.1c.1-.7-.5-1.3-1.2-1.4l-3.9-.3c-.1-2.1-1.8-3.9-4-4.1h-.3c-2.1 0-3.8 1.5-4.2 3.5L15 11.3c-.1-2.1-1.8-3.9-4-4.1h-.3c-2.1 0-3.8 1.5-4.2 3.5l-3.9-.3c-.7-.1-1.3.5-1.4 1.2l-.1 1.1c-.1.7.5 1.3 1.2 1.4h.3l-.1 1.1c-.1.7.6 1.1 1 1.3l.7 1.5.3.3 5.7 1.1 3.1 6.2c.1.1.2.2.3.2l1.3.3.1.6c0 .1.1.2.1.2H.8c-.4 0-.7.3-.7.7 0 .4.3.7.7.7h38.5c.4 0 .7-.3.7-.7 0-.2-.3-.5-.7-.5zM8.5 11.3c.1-1.2 1.1-2.1 2.3-2.1h.2c1.3.1 2.2 1.2 2.1 2.4-.1 1.2-1.1 2.1-2.3 2.1h-.2c-1.3 0-2.2-1.1-2.1-2.4zm18.8 1.4c.1-1.2 1.1-2.1 2.3-2.1h.2c1.3.1 2.2 1.2 2.1 2.4-.1 1.2-1.1 2.1-2.3 2.1h-.2c-.6 0-1.2-.3-1.6-.8-.3-.4-.5-1-.5-1.6zM16 27.1l.5-.2.3.2H16zm1.9 0 .4-.3.3.3h-.7z" /></symbol><symbol viewBox="0 0 40 40" id="dayMap"><path d="M9.5 4.9C4.4 4.9.1 9.1.1 14.2c0 2 .6 3.8 1.7 5.4l6.5 11.2c.9 1.2 1.5 1 2.3-.1l7.2-12.2c.1-.3.3-.5.4-.8.5-1.1.7-2.3.7-3.5-.1-5.1-4.3-9.3-9.4-9.3zm0 4.4c2.8 0 5 2.2 5 5s-2.2 5-5 5-5-2.2-5-5 2.2-5 5-5z" /><path d="M39.4 7.3c-1 0-2 .1-3 .1l.2 2.5c1-.1 1.9-.1 2.9-.1l-.1-2.5zm-5.3.4c-1.5.2-3.1.5-4.6.9L30 11c1.4-.4 2.9-.7 4.3-.8l-.2-2.5zm-7 1.7c-.5.2-.9.4-1.3.7-.6.4-1.3.9-1.8 1.6-.4.5-.7 1.2-.8 1.9l2.3.3c0-.2.1-.4.3-.6.3-.4.7-.7 1.2-1 .3-.2.7-.4 1.1-.6l-1-2.3zM26 15l-1.5 1.9c.3.3.7.6 1.1.8 1.2.7 2.4 1 3.5 1.4l.6-2.4c-1.1-.4-2.2-.7-3.1-1.2-.2-.2-.5-.4-.6-.5zm5.9 2.3-.6 2.4.3.1.4.1c1.2.4 2.4.8 3.4 1.4l1.1-2.2c-1.3-.7-2.6-1.2-3.8-1.6l-.4-.1-.4-.1zm6.6 3.5-1.6 1.7c.4.4.7.9.8 1.4.2.6.2 1.3 0 2l2.2.5c.2-1 .2-2.1-.1-3.2-.2-.9-.7-1.8-1.3-2.4zM37 27.4c-.2.3-.5.5-.8.7-.8.6-1.7 1-2.7 1.4l.7 2.3c1.1-.4 2.2-.9 3.2-1.6.4-.3.8-.6 1.2-1L37 27.4zm-5.7 2.8c-1.4.4-2.9.7-4.4.9l.3 2.4c1.5-.3 3.1-.6 4.6-1l-.5-2.3zm-6.6 1.2c-1.5.2-3 .4-4.5.5l.2 2.5c1.5-.1 3.1-.3 4.6-.5l-.3-2.5zm-6.7.7-4.5.3.1 2.5c1.5-.1 3.1-.2 4.6-.3l-.2-2.5zm-6.8.4c-.9 0-1.8.1-2.7.1l.1 2.5c.9 0 1.8-.1 2.7-.1l-.1-2.5z" style="fill-rule:evenodd;clip-rule:evenodd" /></symbol><symbol viewBox="0 0 40 40" id="disassemblyCar"><path fill="currentColor" d="m25.3 22.7-5.6 1.6-3.9-3.3c-.8-.7-2.2-.9-3.1-.4l-8.1 4c-1 .5-1.6 1.7-1.6 2.8l.3 5-1.4 1.5c-.7.7-.9 1.9-.5 2.6l1.4 2.7c.4.7 1.3 1.1 2.2.6l1.1-.5c-.9-1.8-.2-4 1.6-4.9s4-.2 4.9 1.6l8.5-4.2c-.9-1.8-.2-4 1.6-4.9 1.8-.9 4-.2 4.9 1.6l.7-.3c.8-.4 1.1-1.3.7-2l-1.3-2.7c-.6-.7-1.6-1.1-2.4-.8zM9.8 29.2 5 31.5l-.2-4.2c0-.4.3-.9.5-1L7.8 25l2 4.2zm1.6-.9-2.1-4.1 4.1-2c.2-.1.9 0 1.2.2l3.2 2.7-6.4 3.2zM19.8 13.7l.4.5c1.1-1.2 3-1.3 4.2-.2 1.2 1.1 1.3 3 .2 4.2l5.7 5.2c1.1-1.2 3-1.3 4.2-.2 1.2 1.1 1.3 3 .2 4.2l.7.6c.6.5 1.4.5 1.8 0l1.6-1.8c.5-.5.6-1.5.2-2.2l-.8-1.5 1.3-3.9c.3-.8 0-1.9-.6-2.5l-5.5-4.9c-.6-.6-1.7-.7-2.5-.4l-3.7 1.7-.3-5.1c0-.2-.2-.4-.4-.3-.2 0-.4.2-.3.4l.2 4.5-3.3-2c-.6-.4-1.4-.3-1.9.2L19.6 12c-.4.4-.4 1.2.2 1.7zm14 4.7 2.5-2.8 1.7 1.5c.2.1.3.6.2.9l-1.1 3.3-3.3-2.9zm-7.1-3.1 1.6-1.8 3.2-1.4c.3-.1.8 0 .9.1l2.7 2.5-5.5 6-3.2-2.9c.4-.8.5-1.7.3-2.5zM1.6 13.9l1.5 2.5c.4.7 1.3 1 2 .6l.3-.1.7 1.3c.2.3.6.4 1 .3l.6-.5c.3-.1.4-.6.3-1l-.7-1.3 7.9-4.6c.7-.4 1-1.3.6-2l-1.5-2.5c-.3-.5-.9-.8-1.5-.7L9.4 2.5c-.5-.6-1.5-.7-2.2-.3l-6 3.4C.5 6 .2 7 .4 7.8l1.3 4.5c-.4.5-.4 1.1-.1 1.6zm9.7-4.3c-.3-.5-.1-1.2.4-1.5.5-.3 1.2-.1 1.5.4.3.5.1 1.2-.4 1.5-.5.3-1.2.1-1.5-.4zM3 11.4l-1.2-4c0-.1.1-.4.2-.4l5.9-3.5c.1-.1.4 0 .5.1l2.9 3L3 11.4zm.6 2.6c-.3-.5-.1-1.2.4-1.5.5-.3 1.2-.1 1.5.4s.1 1.2-.4 1.5c-.5.3-1.2.1-1.5-.4zM22.6 7.2l-4.1-4.6c-.3-.3-.3-.9.1-1.2L20 .2c.3-.3.9-.3 1.2.1l4.1 4.6c.3.3.3.9-.1 1.2l-1.3 1.2c-.4.2-.9.2-1.3-.1zM22.2 34.9V38c0 1 2.3 1.9 5 1.9s5-.8 5-1.9v-3.2c0-1-2.3-1.9-5-1.9-2.8.1-5 .9-5 2zm2.2 0c0-.6 1.3-1 2.9-1 1.6 0 2.9.5 2.9 1 0 .6-1.3 1-2.9 1-1.6 0-2.9-.4-2.9-1z" /></symbol><symbol viewBox="0 0 40 40" id="fireCar"><path fill="currentColor" d="M37.1 25.2 31.7 14c-.3-.6-.8-1.1-1.4-1.5-.1 1.6-.5 3.1-1.2 4.5.1.1.1.1.1.2l3.7 7.7H7.8l3.7-7.7c0-.1.1-.1.1-.2-.7-1.3-1.2-2.8-1.2-4.5-.6.4-1.1.9-1.4 1.5L3.6 25.2c-.5 1.1-.7 1.9-.7 3v11c.1.4.5.8.9.8h4.3c.5 0 .8-.4.8-.9v-2.7h22.8v2.7c0 .5.3.9.8.9h4.3c.5 0 .9-.4.9-.9v-11c0-1-.1-1.8-.6-2.9zM8.6 33.1c-1.5 0-2.7-1.2-2.7-2.7 0-1.5 1.2-2.7 2.7-2.7s2.7 1.2 2.7 2.7c0 1.5-1.3 2.7-2.7 2.7zm23.5 0c-1.5 0-2.7-1.2-2.7-2.7 0-1.5 1.2-2.7 2.7-2.7 1.5 0 2.7 1.2 2.7 2.7 0 1.5-1.2 2.7-2.7 2.7zm-20.5-21c0-2.8 1.3-5.2 3.3-6.8.5-.3.7 0 .6.2-1.4 3.3-.4 6.5 2 7.2-.7-1.6-1-3.5-.8-5.4.3-2.8 1.7-5.3 3.7-7 .3-.3.5-.3.6-.3.1 0 .3.1.2.3-.1.5-.3 1.1-.3 1.7-.3 2.4.3 4.7 1.4 6.6 1.6 0 2.4-2 2.6-3.3 0-.3.3-.5.8-.1 2.2 1.6 3.5 4.1 3.5 7 0 4.8-3.9 8.7-8.7 8.7s-8.9-4-8.9-8.8z" /></symbol><symbol viewBox="0 0 40 33" id="logo"><style>#logo .st0,#logo .st3{stroke-width:2.560000e-03;stroke-miterlimit:2}#logo .st0{fill:#136add;stroke:#136add}#logo .st3{stroke:#000}</style><g id="logo_SVGRepo_iconCarrier"><path class="st0" d="M39.4 14.6c-4.2 1-11.5 1.6-19.4 1.6S4.8 15.6.6 14.6c-.4-.1-.7-.5-.6-1 .1-.4.6-.6 1-.5 4.1 1 11.2 1.6 19 1.6s14.9-.6 19-1.6c.4-.1.8.2.9.6.2.4-.1.8-.5.9z" /><path d="M14.7.2h10.6c6.9.1 9.2.7 10.3 10.6l1.5 13.5c.2 1.5-.9 2.7-2.4 2.7H5.2c-1.5 0-2.6-1.2-2.4-2.7l1.5-13.5C5.5.9 7.8.3 14.7.2z" style="fill:#95b8c2;stroke:#95b8c2;stroke-width:2.560000e-03;stroke-miterlimit:2" /><path d="M28.7.4 25.2 27H13L16.5.2h8.8c1.3 0 2.5.1 3.4.2z" style="fill:#a7c2e2;stroke:#a7c2e2;stroke-width:2.560000e-03;stroke-miterlimit:2" /><path class="st3" d="M34.8 24.9v5.2c0 1.2-1 2.2-2.2 2.2-1.2 0-2.2-1-2.2-2.2v-5.2h4.4zM5.2 30.1c0 1.2 1 2.2 2.2 2.2 1.2 0 2.2-1 2.2-2.2v-5.2H5.2v5.2z" /><path d="M32.2 15.4c0 2.9-2.3 5.2-5.2 5.2s-5.2-2.3-5.2-5.2 2.3-5.2 5.2-5.2 5.2 2.4 5.2 5.2z" style="fill:#be5924;stroke:#be5924;stroke-width:2.560000e-03;stroke-miterlimit:2" /><path d="M26.1 20.5c-2.5-.4-4.3-2.5-4.3-5.1 0-2.9 2.3-5.2 5.2-5.2h.5l-1.4 10.3z" style="fill:#5b7f99;stroke:#5b7f99;stroke-width:2.560000e-03;stroke-miterlimit:2" /><path d="M30.4 15.4c0 1.9-1.6 3.4-3.5 3.4s-3.5-1.5-3.5-3.4S25 12 27 12c1.9 0 3.4 1.5 3.4 3.4z" style="fill:#893912;stroke:#893912;stroke-width:2.560000e-03;stroke-miterlimit:2" /><path class="st3" d="M26.3 18.8c-1.6-.3-2.8-1.7-2.8-3.4 0-1.9 1.6-3.4 3.5-3.4h.2l-.9 6.8z" /><path class="st0" d="M37.2 24.3c.2 1.5-.9 2.7-2.4 2.7H5.2c-1.5 0-2.6-1.2-2.4-2.7l1-9.1c4.1.6 9.8 1 16.2 1 6.3 0 12.1-.4 16.2-1l1 9.1z" /><path class="st0" d="M3.1 21.6h33.8l.3 2.7c.2 1.5-.9 2.7-2.4 2.7H5.2c-1.5 0-2.6-1.2-2.4-2.7l.3-2.7z" /><path d="M26.9 21.6c0 .4-.4.8-.8.8H13.9c-.4 0-.8-.3-.8-.8 0-.4.4-.8.8-.8h12.3c.4.1.7.4.7.8z" style="fill:#651100;stroke:#651100;stroke-width:2.560000e-03;stroke-miterlimit:2" /><path d="M9.2 21.6c0 .4-.4.8-.8.8H3.1c-.4 0-.8-.3-.8-.8 0-.4.4-.8.8-.8h5.3c.4.1.8.4.8.8zm27.7-.7h-5.3c-.4 0-.8.3-.8.8 0 .4.4.8.8.8h5.3c.4 0 .8-.3.8-.8s-.4-.8-.8-.8z" style="fill:#e69724;stroke:#e69724;stroke-width:2.560000e-03;stroke-miterlimit:2" /></g></symbol><symbol viewBox="0 0 40 40" id="payDay"><path d="M32.2 9.8c-4.3 0-7.8 3.5-7.8 7.8s3.5 7.8 7.8 7.8 7.8-3.5 7.8-7.8-3.5-7.8-7.8-7.8zm.6 12V23h-1.1v-1.2c-.9 0-1.9-.2-2.3-.5l.4-1.6c.5.2 1.3.5 2.1.5.9 0 1.3-.4 1.3-.9s-.4-.8-1.5-1.2c-1.4-.5-2.3-1.2-2.3-2.5 0-1.2.8-2.1 2.2-2.4V12h1.1v1.2c.9 0 1.5.2 2 .4l-.4 1.5c-.4-.1-.9-.4-1.7-.4-.8 0-1.2.4-1.2.8 0 .5.5.7 1.6 1.2 1.5.5 2.1 1.3 2.1 2.5 0 1.3-.7 2.3-2.3 2.6zM30 27h-7.5v-6.7c0-3.2-2.8-5.9-6-5.9h-10c-3.5 0-6.5 3-6.5 6v12.2c0 1.4 1 2.1 1.9 2.1 1 0 1.9-.7 1.9-2.1V20.8h1.3v14h12.4v-14h1.3v8c0 1.4.8 2 1.7 2H30c2.6 0 2.6-3.8 0-3.8zM11.4 5.2C9.1 5.2 7.3 7 7.3 9.3s1.8 4.1 4.1 4.1 4.1-1.8 4.1-4.1c0-2.2-1.8-4.1-4.1-4.1z" /></symbol><symbol viewBox="0 0 40 40" id="payTags"><path d="M39.8 24 16 .2c-.2-.1-.4-.2-.6-.2H9.1c-.2 0-.4.1-.6.2L.2 8.5c-.1.2-.2.4-.2.6v6.3c0 .2.1.4.2.6L24 39.8c.1.1.4.2.6.2.2 0 .4-.1.6-.2l14.6-14.6c.3-.4.3-.9 0-1.2zM24.6 38.1l-23-23V9.4l7.8-7.8h5.7l23 23-13.5 13.5z" /><path d="M8.6 5.8c-.7 0-1.4.3-1.9.8s-.9 1.2-.9 2 .3 1.4.8 1.9 1.2.8 1.9.8 1.4-.3 1.9-.8c1.1-1.1 1.1-2.8 0-3.8-.4-.6-1.1-.9-1.8-.9zm.7 3.5c-.4.4-1.1.4-1.6 0-.1-.2-.3-.5-.3-.7 0-.3.1-.6.3-.8.3-.2.6-.4.9-.4s.6.1.8.3c.4.5.4 1.2-.1 1.6zM27.5 26.3c1.5-1.9 1.6-4.1-.4-6.1-2.3-2.3-4.5-1.5-6.3-.7l-4.2-4.2c1.3-1.2 2.4-1.1 2.7-1.4.3-.3.1-.9-.1-1.1-.6-.6-2.3.4-3.6 1.5l-.5-.5c-.2-.2-.5-.1-.7.1-.2.2-.2.5-.1.7l.5.5c-1.4 1.6-2.3 3.8-.2 5.9 2.1 2.1 4.2 1.1 6.2.1l4.9 4.9c-2.1 2-3.8 1.1-4.2 1.5-.3.3-.2.9.1 1.1.6.6 3 .6 5.2-1.5l.6.6c.2.2.5.2.7-.1.2-.2.2-.5.1-.7l-.7-.6zm-11.9-6.4c-1.2-1.2-.7-2.7.3-3.8l3.9 3.9c-1.6.7-2.9 1.2-4.2-.1zm10.8 5.4-4.6-4.6c1.4-.6 2.8-.9 4.3.6 1.2 1.3 1.3 2.7.3 4zM21.8 9.6 17.1 5c-.3-.3-.8-.3-1.1 0-.3.3-.3.8 0 1.1l4.6 4.6c.2.2.4.2.6.2s.4-.1.6-.2c.3-.3.3-.8 0-1.1zM15.2 3.1l-.2-.2c-.3-.3-.8-.3-1.1 0-.3.3-.3.8 0 1.1l.2.2c.2.2.4.2.6.2.2 0 .4-.1.6-.2.2-.3.2-.8-.1-1.1z" /></symbol></defs></svg>