<?xml version="1.0" encoding="utf-8"?>
<!-- Generator: Adobe Illustrator 28.0.0, SVG Export Plug-In . SVG Version: 6.00 Build 0)  -->
<svg version="1.1" id="Layer_1" xmlns="http://www.w3.org/2000/svg" xmlns:xlink="http://www.w3.org/1999/xlink" x="0px" y="0px"
	 viewBox="0 0 40 40.1" style="enable-background:new 0 0 40 40.1;" xml:space="preserve">
<path fill="currentColor" d="M11.8,34.5v2.5c0,1.4-1.1,2.5-2.5,2.5s-2.5-1.1-2.5-2.5v-2.5H4.3v-8.1l0,0c0-1.8,1.2-3.2,2.8-3.7l2.9-6.9
	c0.4-1,1.4-1.7,2.6-1.7h14.8c1.2,0,2.2,0.7,2.6,1.7l2.9,6.9c1.6,0.5,2.8,1.9,2.8,3.7l0,0v8.1h-2.5v2.5c0,1.4-1.1,2.5-2.5,2.5
	c-1.4,0-2.5-1.1-2.5-2.5v-2.5H11.8z M9.5,30c1.4,0,2.5-1.1,2.5-2.5c0-1.4-1.1-2.5-2.5-2.5S7,26.2,7,27.5C7,28.9,8.1,30,9.5,30
	 M32.9,27.5c0-1.4-1.1-2.5-2.5-2.5s-2.5,1.1-2.5,2.5c0,1.4,1.1,2.5,2.5,2.5C31.8,30,32.9,28.9,32.9,27.5 M30.4,22.6l-2.5-5.9
	c-0.1-0.3-0.4-0.5-0.7-0.5H12.8c-0.3,0-0.6,0.2-0.7,0.5l-2.5,5.9H30.4z M23.7,6c0,2-1.6,3.7-3.7,3.7S16.4,8,16.4,6
	c0-2,1.6-3.7,3.7-3.7S23.7,4,23.7,6z M31,0.7v10.6H9V0.7H31z M27.7,1.7H12.2c-0.3,1.1-1.1,1.9-2.1,2.2V8c1.1,0.3,1.9,1.2,2.1,2h15.5
	c0.3-0.9,1.1-1.8,2.2-2V3.9C28.8,3.7,28,2.8,27.7,1.7z"/>
</svg>
