<?xml version="1.0" encoding="utf-8"?>
<!-- Generator: Adobe Illustrator 28.0.0, SVG Export Plug-In . SVG Version: 6.00 Build 0)  -->
<svg version="1.1" id="Capa_1" xmlns="http://www.w3.org/2000/svg" xmlns:xlink="http://www.w3.org/1999/xlink" x="0px" y="0px"
	 viewBox="0 0 40 40" style="enable-background:new 0 0 40 40;" xml:space="preserve">
<path fill="currentColor" d="M39.3,27.1H28.6l0-0.6l0.4-0.1c0.1,0,0.2-0.1,0.3-0.2l2.8-4.7l3.1,0.2c1.4,0.1,2.2-0.6,2.3-2l0.2-3.1c0.7,0,1.2-0.5,1.3-1.2
	l0.1-1.1c0.1-0.7-0.5-1.3-1.2-1.4l-3.9-0.3c-0.1-2.1-1.8-3.9-4-4.1c-0.1,0-0.2,0-0.3,0c-2.1,0-3.8,1.5-4.2,3.5L15,11.3
	c-0.1-2.1-1.8-3.9-4-4.1c-0.1,0-0.2,0-0.3,0c-2.1,0-3.8,1.5-4.2,3.5l-3.9-0.3c-0.7-0.1-1.3,0.5-1.4,1.2l-0.1,1.1
	c-0.1,0.7,0.5,1.3,1.2,1.4l0.3,0l-0.1,1.1c-0.1,0.7,0.6,1.1,1,1.3l0.7,1.5c0.1,0.1,0.2,0.2,0.3,0.3l5.7,1.1l3.1,6.2
	c0.1,0.1,0.2,0.2,0.3,0.2l1.3,0.3l0.1,0.6c0,0.1,0.1,0.2,0.1,0.2H0.8c-0.4,0-0.7,0.3-0.7,0.7c0,0.4,0.3,0.7,0.7,0.7h38.5
	c0.4,0,0.7-0.3,0.7-0.7C40,27.4,39.7,27.1,39.3,27.1z M8.5,11.3c0.1-1.2,1.1-2.1,2.3-2.1c0.1,0,0.1,0,0.2,0c1.3,0.1,2.2,1.2,2.1,2.4
	c-0.1,1.2-1.1,2.1-2.3,2.1c-0.1,0-0.1,0-0.2,0C9.3,13.7,8.4,12.6,8.5,11.3z M27.3,12.7c0.1-1.2,1.1-2.1,2.3-2.1c0.1,0,0.1,0,0.2,0
	c1.3,0.1,2.2,1.2,2.1,2.4c-0.1,1.2-1.1,2.1-2.3,2.1c-0.1,0-0.1,0-0.2,0c-0.6,0-1.2-0.3-1.6-0.8C27.5,13.9,27.3,13.3,27.3,12.7z
	 M16,27.1l0.5-0.2l0.3,0.2H16z M17.9,27.1l0.4-0.3l0.3,0.3H17.9z"/>
</svg>
