<?xml version="1.0" encoding="utf-8"?>
<!-- Generator: Adobe Illustrator 28.0.0, SVG Export Plug-In . SVG Version: 6.00 Build 0)  -->
<svg version="1.1" id="Слой_1" xmlns="http://www.w3.org/2000/svg" xmlns:xlink="http://www.w3.org/1999/xlink" x="0px" y="0px"
	 viewBox="0 0 40 40" style="enable-background:new 0 0 40 40;" xml:space="preserve">
<style type="text/css">
	.st0{fill-rule:evenodd;clip-rule:evenodd;}
</style>
<path d="M9.5,4.9c-5.1,0-9.4,4.2-9.4,9.3c0,2,0.6,3.8,1.7,5.4l6.5,11.2c0.9,1.2,1.5,1,2.3-0.1l7.2-12.2c0.1-0.3,0.3-0.5,0.4-0.8
	c0.5-1.1,0.7-2.3,0.7-3.5C18.8,9.1,14.6,4.9,9.5,4.9z M9.5,9.3c2.8,0,5,2.2,5,5s-2.2,5-5,5c-2.8,0-5-2.2-5-5
	C4.5,11.5,6.7,9.3,9.5,9.3L9.5,9.3z"/>
<path class="st0" d="M39.4,7.3c-1,0-2,0.1-3,0.1l0.2,2.5c1-0.1,1.9-0.1,2.9-0.1L39.4,7.3z M34.1,7.7c-1.5,0.2-3.1,0.5-4.6,0.9L30,11
	c1.4-0.4,2.9-0.7,4.3-0.8L34.1,7.7z M27.1,9.4c-0.5,0.2-0.9,0.4-1.3,0.7l0,0l0,0c-0.6,0.4-1.3,0.9-1.8,1.6c-0.4,0.5-0.7,1.2-0.8,1.9
	l2.3,0.3c0-0.2,0.1-0.4,0.3-0.6h0v0c0.3-0.4,0.7-0.7,1.2-1l0,0c0.3-0.2,0.7-0.4,1.1-0.6L27.1,9.4z M26,15l-1.5,1.9
	c0.3,0.3,0.7,0.6,1.1,0.8l0,0l0,0c1.2,0.7,2.4,1,3.5,1.4l0.6-2.4c-1.1-0.4-2.2-0.7-3.1-1.2C26.4,15.3,26.1,15.1,26,15L26,15z
	 M31.9,17.3l-0.6,2.4l0.3,0.1l0.4,0.1c1.2,0.4,2.4,0.8,3.4,1.4l1.1-2.2c-1.3-0.7-2.6-1.2-3.8-1.6l0,0l-0.4-0.1L31.9,17.3z
	 M38.5,20.8l-1.6,1.7c0.4,0.4,0.7,0.9,0.8,1.4l0,0l0,0c0.2,0.6,0.2,1.3,0,2l2.2,0.5c0.2-1,0.2-2.1-0.1-3.2
	C39.6,22.3,39.1,21.4,38.5,20.8z M37,27.4c-0.2,0.3-0.5,0.5-0.8,0.7h0c-0.8,0.6-1.7,1-2.7,1.4l0.7,2.3c1.1-0.4,2.2-0.9,3.2-1.6l0,0
	l0,0c0.4-0.3,0.8-0.6,1.2-1L37,27.4z M31.3,30.2c-1.4,0.4-2.9,0.7-4.4,0.9l0.3,2.4c1.5-0.3,3.1-0.6,4.6-1L31.3,30.2z M24.7,31.4
	c-1.5,0.2-3,0.4-4.5,0.5l0.2,2.5c1.5-0.1,3.1-0.3,4.6-0.5L24.7,31.4z M18,32.1c-1.5,0.1-3,0.2-4.5,0.3l0.1,2.5
	c1.5-0.1,3.1-0.2,4.6-0.3L18,32.1z M11.2,32.5c-0.9,0-1.8,0.1-2.7,0.1l0.1,2.5c0.9,0,1.8-0.1,2.7-0.1L11.2,32.5z"/>
</svg>
