<?xml version="1.0" encoding="utf-8"?>
<!-- Generator: Adobe Illustrator 28.0.0, SVG Export Plug-In . SVG Version: 6.00 Build 0)  -->
<svg version="1.1" id="Jankyard" xmlns="http://www.w3.org/2000/svg" xmlns:xlink="http://www.w3.org/1999/xlink" x="0px" y="0px"
	 viewBox="0 0 40 40" style="enable-background:new 0 0 40 40;" xml:space="preserve">
<path fill="currentColor" id="_x37_" d="M25.3,22.7l-5.6,1.6L15.8,21c-0.8-0.7-2.2-0.9-3.1-0.4l-8.1,4C3.6,25.1,3,26.3,3,27.4l0.3,5l-1.4,1.5
	c-0.7,0.7-0.9,1.9-0.5,2.6l1.4,2.7c0.4,0.7,1.3,1.1,2.2,0.6l1.1-0.5l0,0c-0.9-1.8-0.2-4,1.6-4.9s4-0.2,4.9,1.6l0,0l8.5-4.2l0,0
	c-0.9-1.8-0.2-4,1.6-4.9c1.8-0.9,4-0.2,4.9,1.6l0,0l0.7-0.3c0.8-0.4,1.1-1.3,0.7-2l-1.3-2.7C27.1,22.8,26.1,22.4,25.3,22.7z
	 M9.8,29.2L5,31.5l-0.2-4.2c0-0.4,0.3-0.9,0.5-1L7.8,25L9.8,29.2z M11.4,28.3l-2.1-4.1l4.1-2c0.2-0.1,0.9,0,1.2,0.2l3.2,2.7
	L11.4,28.3z"/>
<path fill="currentColor" id="_x35_" d="M19.8,13.7l0.4,0.5l0,0c1.1-1.2,3-1.3,4.2-0.2c1.2,1.1,1.3,3,0.2,4.2l0,0l5.7,5.2l0,0c1.1-1.2,3-1.3,4.2-0.2
	c1.2,1.1,1.3,3,0.2,4.2l0,0l0.7,0.6c0.6,0.5,1.4,0.5,1.8,0l1.6-1.8c0.5-0.5,0.6-1.5,0.2-2.2l-0.8-1.5l1.3-3.9c0.3-0.8,0-1.9-0.6-2.5
	l-5.5-4.9c-0.6-0.6-1.7-0.7-2.5-0.4l-3.7,1.7l-0.3-5.1c0-0.2-0.2-0.4-0.4-0.3c-0.2,0-0.4,0.2-0.3,0.4l0.2,4.5l-3.3-2
	c-0.6-0.4-1.4-0.3-1.9,0.2l-1.6,1.8C19.2,12.4,19.2,13.2,19.8,13.7z M33.8,18.4l2.5-2.8l1.7,1.5c0.2,0.1,0.3,0.6,0.2,0.9l-1.1,3.3
	L33.8,18.4z M26.7,15.3l1.6-1.8l3.2-1.4c0.3-0.1,0.8,0,0.9,0.1l2.7,2.5l-5.5,6l-3.2-2.9C26.8,17,26.9,16.1,26.7,15.3z"/>
<path fill="currentColor" id="_x34_" d="M1.6,13.9l1.5,2.5c0.4,0.7,1.3,1,2,0.6l0.3-0.1l0.7,1.3c0.2,0.3,0.6,0.4,1,0.3L7.7,18C8,17.9,8.1,17.4,8,17
	l-0.7-1.3l7.9-4.6c0.7-0.4,1-1.3,0.6-2l-1.5-2.5c-0.3-0.5-0.9-0.8-1.5-0.7L9.4,2.5C8.9,1.9,7.9,1.8,7.2,2.2L1.2,5.6
	C0.5,6,0.2,7,0.4,7.8l1.3,4.5C1.3,12.8,1.3,13.4,1.6,13.9z M11.3,9.6c-0.3-0.5-0.1-1.2,0.4-1.5c0.5-0.3,1.2-0.1,1.5,0.4
	c0.3,0.5,0.1,1.2-0.4,1.5C12.3,10.3,11.6,10.1,11.3,9.6z M3,11.4l-1.2-4C1.8,7.3,1.9,7,2,7l5.9-3.5c0.1-0.1,0.4,0,0.5,0.1l2.9,3
	L3,11.4z M3.6,14c-0.3-0.5-0.1-1.2,0.4-1.5c0.5-0.3,1.2-0.1,1.5,0.4s0.1,1.2-0.4,1.5C4.6,14.7,3.9,14.5,3.6,14z"/>
<path fill="currentColor" id="_x32_" d="M22.6,7.2l-4.1-4.6c-0.3-0.3-0.3-0.9,0.1-1.2L20,0.2c0.3-0.3,0.9-0.3,1.2,0.1l4.1,4.6c0.3,0.3,0.3,0.9-0.1,1.2
	l-1.3,1.2C23.5,7.5,23,7.5,22.6,7.2z"/>
<path fill="currentColor" id="_x31_" d="M22.2,34.9V38c0,1,2.3,1.9,5,1.9s5-0.8,5-1.9v-3.2c0-1-2.3-1.9-5-1.9C24.4,33,22.2,33.8,22.2,34.9z M24.4,34.9
	c0-0.6,1.3-1,2.9-1c1.6,0,2.9,0.5,2.9,1c0,0.6-1.3,1-2.9,1C25.7,35.9,24.4,35.5,24.4,34.9z"/>
</svg>
