<?xml version="1.0" encoding="utf-8"?>
<!-- Generator: Adobe Illustrator 28.0.0, SVG Export Plug-In . SVG Version: 6.00 Build 0)  -->
<svg version="1.1" id="Capa_1" xmlns="http://www.w3.org/2000/svg" xmlns:xlink="http://www.w3.org/1999/xlink" x="0px" y="0px"
	 viewBox="0 0 40 40" style="enable-background:new 0 0 40 40;" xml:space="preserve">
<g>
	<path fill="currentColor" d="M37.1,25.2L31.7,14c-0.3-0.6-0.8-1.1-1.4-1.5c-0.1,1.6-0.5,3.1-1.2,4.5c0.1,0.1,0.1,0.1,0.1,0.2l3.7,7.7H7.8l3.7-7.7
		c0-0.1,0.1-0.1,0.1-0.2c-0.7-1.3-1.2-2.8-1.2-4.5l0,0C9.8,12.9,9.3,13.4,9,14L3.6,25.2c-0.5,1.1-0.7,1.9-0.7,3v9.7v1.3
		C3,39.6,3.4,40,3.8,40h4.3c0.5,0,0.8-0.4,0.8-0.9v-1.3v-1.4h22.8v1.4v1.3c0,0.5,0.3,0.9,0.8,0.9h4.3c0.5,0,0.9-0.4,0.9-0.9v-1.3
		v-9.7C37.7,27.1,37.6,26.3,37.1,25.2z M8.6,33.1c-1.5,0-2.7-1.2-2.7-2.7c0-1.5,1.2-2.7,2.7-2.7s2.7,1.2,2.7,2.7
		C11.3,31.9,10,33.1,8.6,33.1z M32.1,33.1c-1.5,0-2.7-1.2-2.7-2.7c0-1.5,1.2-2.7,2.7-2.7c1.5,0,2.7,1.2,2.7,2.7
		C34.8,31.9,33.6,33.1,32.1,33.1z M11.6,12.1c0-2.8,1.3-5.2,3.3-6.8c0.5-0.3,0.7,0,0.6,0.2c-1.4,3.3-0.4,6.5,2,7.2
		c-0.7-1.6-1-3.5-0.8-5.4c0.3-2.8,1.7-5.3,3.7-7C20.7,0,20.9,0,21,0c0.1,0,0.3,0.1,0.2,0.3c-0.1,0.5-0.3,1.1-0.3,1.7
		c-0.3,2.4,0.3,4.7,1.4,6.6c1.6,0,2.4-2,2.6-3.3c0-0.3,0.3-0.5,0.8-0.1c2.2,1.6,3.5,4.1,3.5,7c0,4.8-3.9,8.7-8.7,8.7
		S11.6,16.9,11.6,12.1z"/>
</g>
</svg>
