<?xml version="1.0" encoding="utf-8"?>
<svg version="1.1" id="Слой_1" xmlns="http://www.w3.org/2000/svg" xmlns:xlink="http://www.w3.org/1999/xlink" x="0px" y="0px"
	 viewBox="0 0 40 33" style="enable-background:new 0 0 40 33;" xml:space="preserve">
<style type="text/css">
	.st0{fill:#136ADD;stroke:#136ADD;stroke-width:2.560000e-03;stroke-miterlimit:2;}
	.st1{fill:#95B8C2;stroke:#95B8C2;stroke-width:2.560000e-03;stroke-miterlimit:2;}
	.st2{fill:#A7C2E2;stroke:#A7C2E2;stroke-width:2.560000e-03;stroke-miterlimit:2;}
	.st3{stroke:#000000;stroke-width:2.560000e-03;stroke-miterlimit:2;}
	.st4{fill:#BE5924;stroke:#BE5924;stroke-width:2.560000e-03;stroke-miterlimit:2;}
	.st5{fill:#5B7F99;stroke:#5B7F99;stroke-width:2.560000e-03;stroke-miterlimit:2;}
	.st6{fill:#893912;stroke:#893912;stroke-width:2.560000e-03;stroke-miterlimit:2;}
	.st7{fill:#651100;stroke:#651100;stroke-width:2.560000e-03;stroke-miterlimit:2;}
	.st8{fill:#E69724;stroke:#E69724;stroke-width:2.560000e-03;stroke-miterlimit:2;}
</style>
<g id="SVGRepo_bgCarrier">
</g>
<g id="SVGRepo_tracerCarrier">
</g>
<g id="SVGRepo_iconCarrier">
	<path class="st0" d="M39.4,14.6c-4.2,1-11.5,1.6-19.4,1.6S4.8,15.6,0.6,14.6c-0.4-0.1-0.7-0.5-0.6-1C0.1,13.2,0.6,13,1,13.1
		c4.1,1,11.2,1.6,19,1.6s14.9-0.6,19-1.6c0.4-0.1,0.8,0.2,0.9,0.6C40.1,14.1,39.8,14.5,39.4,14.6z"/>
	<path class="st1" d="M14.7,0.2H20h5.3c6.9,0.1,9.2,0.7,10.3,10.6l1.5,13.5c0.2,1.5-0.9,2.7-2.4,2.7h-8H20h-6.8h-8
		c-1.5,0-2.6-1.2-2.4-2.7l1.5-13.5C5.5,0.9,7.8,0.3,14.7,0.2L14.7,0.2z"/>
	<path class="st2" d="M28.7,0.4L25.2,27H20h-6.8H13l3.5-26.8H20h5.3C26.6,0.2,27.8,0.3,28.7,0.4z"/>
	<path class="st3" d="M34.8,24.9v5.2c0,1.2-1,2.2-2.2,2.2h0c-1.2,0-2.2-1-2.2-2.2v-5.2H34.8z M5.2,30.1c0,1.2,1,2.2,2.2,2.2h0
		c1.2,0,2.2-1,2.2-2.2v-5.2H5.2C5.2,24.9,5.2,30.1,5.2,30.1z"/>
	<path class="st4" d="M32.2,15.4c0,2.9-2.3,5.2-5.2,5.2s-5.2-2.3-5.2-5.2s2.3-5.2,5.2-5.2S32.2,12.6,32.2,15.4z"/>
	<path class="st5" d="M26.1,20.5c-2.5-0.4-4.3-2.5-4.3-5.1c0-2.9,2.3-5.2,5.2-5.2c0.2,0,0.3,0,0.5,0L26.1,20.5z"/>
	<path class="st6" d="M30.4,15.4c0,1.9-1.6,3.4-3.5,3.4s-3.5-1.5-3.5-3.4S25,12,27,12C28.9,12,30.4,13.5,30.4,15.4z"/>
	<path class="st3" d="M26.3,18.8c-1.6-0.3-2.8-1.7-2.8-3.4c0-1.9,1.6-3.4,3.5-3.4c0.1,0,0.2,0,0.2,0L26.3,18.8z"/>
	<path class="st0" d="M37.2,24.3c0.2,1.5-0.9,2.7-2.4,2.7h-8H20h-6.8h-8c-1.5,0-2.6-1.2-2.4-2.7l1-9.1c4.1,0.6,9.8,1,16.2,1
		c6.3,0,12.1-0.4,16.2-1L37.2,24.3z"/>
	<path class="st0" d="M3.1,21.6h33.8l0.3,2.7c0.2,1.5-0.9,2.7-2.4,2.7h-8H20h-6.8h-8c-1.5,0-2.6-1.2-2.4-2.7L3.1,21.6z"/>
	<path class="st7" d="M26.9,21.6c0,0.4-0.4,0.8-0.8,0.8H13.9c-0.4,0-0.8-0.3-0.8-0.8c0-0.4,0.4-0.8,0.8-0.8h12.3
		C26.6,20.9,26.9,21.2,26.9,21.6z"/>
	<path class="st8" d="M9.2,21.6c0,0.4-0.4,0.8-0.8,0.8H3.1c-0.4,0-0.8-0.3-0.8-0.8c0-0.4,0.4-0.8,0.8-0.8h5.3
		C8.8,20.9,9.2,21.2,9.2,21.6z M36.9,20.9h-5.3c-0.4,0-0.8,0.3-0.8,0.8c0,0.4,0.4,0.8,0.8,0.8h5.3c0.4,0,0.8-0.3,0.8-0.8
		C37.7,21.2,37.3,20.9,36.9,20.9z"/>
</g>
</svg>
