<?xml version="1.0" encoding="utf-8"?>
<!-- Generator: Adobe Illustrator 28.0.0, SVG Export Plug-In . SVG Version: 6.00 Build 0)  -->
<svg version="1.1" id="Layer_1" xmlns="http://www.w3.org/2000/svg" xmlns:xlink="http://www.w3.org/1999/xlink" x="0px" y="0px"
	 viewBox="0 0 40 40" style="enable-background:new 0 0 40 40;" xml:space="preserve">
<path d="M32.2,9.8c-4.3,0-7.8,3.5-7.8,7.8c0,4.3,3.5,7.8,7.8,7.8c4.3,0,7.8-3.5,7.8-7.8S36.5,9.8,32.2,9.8z M32.8,21.8V23h-1.1v-1.2
	c-0.9,0-1.9-0.2-2.3-0.5l0.4-1.6c0.5,0.2,1.3,0.5,2.1,0.5c0.9,0,1.3-0.4,1.3-0.9c0-0.5-0.4-0.8-1.5-1.2c-1.4-0.5-2.3-1.2-2.3-2.5
	c0-1.2,0.8-2.1,2.2-2.4V12h1.1v1.2c0.9,0,1.5,0.2,2,0.4l-0.4,1.5c-0.4-0.1-0.9-0.4-1.7-0.4c-0.8,0-1.2,0.4-1.2,0.8
	c0,0.5,0.5,0.7,1.6,1.2c1.5,0.5,2.1,1.3,2.1,2.5C35.1,20.5,34.4,21.5,32.8,21.8z M30,27h-7.5v-6.7c0-3.2-2.8-5.9-6-5.9h-10
	c-3.5,0-6.5,3-6.5,6v12.2c0,1.4,1,2.1,1.9,2.1c1,0,1.9-0.7,1.9-2.1V20.8h1.3v14h12.4v-14h1.3l0,8c0,1.4,0.8,2,1.7,2H30
	C32.6,30.8,32.6,27,30,27z M11.4,5.2c-2.3,0-4.1,1.8-4.1,4.1s1.8,4.1,4.1,4.1c2.3,0,4.1-1.8,4.1-4.1C15.5,7.1,13.7,5.2,11.4,5.2z"/>
</svg>
