<?xml version="1.0" encoding="utf-8"?>
<!-- Generator: Adobe Illustrator 28.0.0, SVG Export Plug-In . SVG Version: 6.00 Build 0)  -->
<svg version="1.1" id="Layer_1" xmlns="http://www.w3.org/2000/svg" xmlns:xlink="http://www.w3.org/1999/xlink" x="0px" y="0px"
	 viewBox="0 0 40 40" style="enable-background:new 0 0 40 40;" xml:space="preserve">
<g>
	<g>
		<g>
			<path d="M39.8,24L16,0.2C15.8,0.1,15.6,0,15.4,0H9.1C8.9,0,8.7,0.1,8.5,0.2L0.2,8.5C0.1,8.7,0,8.9,0,9.1v6.3
				c0,0.2,0.1,0.4,0.2,0.6L24,39.8c0.1,0.1,0.4,0.2,0.6,0.2c0.2,0,0.4-0.1,0.6-0.2l14.6-14.6C40.1,24.8,40.1,24.3,39.8,24z
				 M24.6,38.1l-23-23V9.4l7.8-7.8h5.7l23,23L24.6,38.1z"/>
			<path d="M8.6,5.8c-0.7,0-1.4,0.3-1.9,0.8S5.8,7.8,5.8,8.6s0.3,1.4,0.8,1.9c0.5,0.5,1.2,0.8,1.9,0.8c0.7,0,1.4-0.3,1.9-0.8
				c1.1-1.1,1.1-2.8,0-3.8C10,6.1,9.3,5.8,8.6,5.8z M9.3,9.3c-0.4,0.4-1.1,0.4-1.6,0C7.6,9.1,7.4,8.8,7.4,8.6c0-0.3,0.1-0.6,0.3-0.8
				C8,7.6,8.3,7.4,8.6,7.4s0.6,0.1,0.8,0.3C9.8,8.2,9.8,8.9,9.3,9.3z"/>
		</g>
	</g>
</g>
<g>
	<g>
		<path d="M27.5,26.3c1.5-1.9,1.6-4.1-0.4-6.1c-2.3-2.3-4.5-1.5-6.3-0.7l-4.2-4.2c1.3-1.2,2.4-1.1,2.7-1.4c0.3-0.3,0.1-0.9-0.1-1.1
			c-0.6-0.6-2.3,0.4-3.6,1.5l-0.5-0.5c-0.2-0.2-0.5-0.1-0.7,0.1c-0.2,0.2-0.2,0.5-0.1,0.7l0.5,0.5c-1.4,1.6-2.3,3.8-0.2,5.9
			c2.1,2.1,4.2,1.1,6.2,0.1l4.9,4.9c-2.1,2-3.8,1.1-4.2,1.5c-0.3,0.3-0.2,0.9,0.1,1.1c0.6,0.6,3,0.6,5.2-1.5l0.6,0.6
			c0.2,0.2,0.5,0.2,0.7-0.1c0.2-0.2,0.2-0.5,0.1-0.7L27.5,26.3z M15.6,19.9c-1.2-1.2-0.7-2.7,0.3-3.8l3.9,3.9
			C18.2,20.7,16.9,21.2,15.6,19.9z M26.4,25.3l-4.6-4.6c1.4-0.6,2.8-0.9,4.3,0.6C27.3,22.6,27.4,24,26.4,25.3z"/>
	</g>
</g>
<g>
	<g>
		<path d="M21.8,9.6L17.1,5c-0.3-0.3-0.8-0.3-1.1,0c-0.3,0.3-0.3,0.8,0,1.1l4.6,4.6c0.2,0.2,0.4,0.2,0.6,0.2s0.4-0.1,0.6-0.2
			C22.1,10.4,22.1,9.9,21.8,9.6z"/>
	</g>
</g>
<g>
	<g>
		<path d="M15.2,3.1L15,2.9c-0.3-0.3-0.8-0.3-1.1,0c-0.3,0.3-0.3,0.8,0,1.1l0.2,0.2c0.2,0.2,0.4,0.2,0.6,0.2c0.2,0,0.4-0.1,0.6-0.2
			C15.5,3.9,15.5,3.4,15.2,3.1z"/>
	</g>
</g>
</svg>
